<?xml version="1.0" encoding="UTF-8" standalone="no"?>
<!-- Created with Inkscape (http://www.inkscape.org/) -->

<svg
   xmlns:dc="http://purl.org/dc/elements/1.1/"
   xmlns:cc="http://creativecommons.org/ns#"
   xmlns:rdf="http://www.w3.org/1999/02/22-rdf-syntax-ns#"
   xmlns:svg="http://www.w3.org/2000/svg"
   xmlns="http://www.w3.org/2000/svg"
   xmlns:sodipodi="http://sodipodi.sourceforge.net/DTD/sodipodi-0.dtd"
   xmlns:inkscape="http://www.inkscape.org/namespaces/inkscape"
   width="744.09448819"
   height="1052.3622047"
   id="svg2"
   version="1.1"
   inkscape:version="0.48.4 r9939"
   sodipodi:docname="IMGUP LOGO.svg"
   inkscape:export-filename="C:\Users\James\Desktop\IMGUP LOGO.png"
   inkscape:export-xdpi="90"
   inkscape:export-ydpi="90">
  <defs
     id="defs4">
    <inkscape:path-effect
       effect="skeletal"
       id="path-effect3806"
       is_visible="true"
       pattern="M 0,0 0,10 10,5 z"
       copytype="single_stretched"
       prop_scale="1"
       scale_y_rel="false"
       spacing="0"
       normal_offset="0"
       tang_offset="0"
       prop_units="false"
       vertical_pattern="false"
       fuse_tolerance="0" />
  </defs>
  <sodipodi:namedview
     id="base"
     pagecolor="#ffffff"
     bordercolor="#666666"
     borderopacity="1.0"
     inkscape:pageopacity="0.0"
     inkscape:pageshadow="2"
     inkscape:zoom="1.4500107"
     inkscape:cx="589.58013"
     inkscape:cy="194.67241"
     inkscape:document-units="px"
     inkscape:current-layer="layer1"
     showgrid="false"
     inkscape:window-width="2560"
     inkscape:window-height="1537"
     inkscape:window-x="1192"
     inkscape:window-y="-8"
     inkscape:window-maximized="1"
     inkscape:snap-global="false" />
  <metadata
     id="metadata7">
    <rdf:RDF>
      <cc:Work
         rdf:about="">
        <dc:format>image/svg+xml</dc:format>
        <dc:type
           rdf:resource="http://purl.org/dc/dcmitype/StillImage" />
        <dc:title></dc:title>
      </cc:Work>
    </rdf:RDF>
  </metadata>
  <g
     inkscape:label="Layer 1"
     inkscape:groupmode="layer"
     id="layer1">
    <rect
       style="fill:#89c624;fill-opacity:1;stroke:#89c624;stroke-width:0.27797422;stroke-opacity:0"
       id="rect3757"
       width="309.72202"
       height="149.72203"
       x="115.29699"
       y="530.24091"
       inkscape:export-filename="C:\Users\James\Desktop\text3850.png"
       inkscape:export-xdpi="90"
       inkscape:export-ydpi="90" />
    <path
       style="fill:#ffffff;fill-opacity:1;fill-rule:evenodd;stroke:#000000;stroke-width:0.19795318px;stroke-linecap:butt;stroke-linejoin:miter;stroke-opacity:0"
       d="m 184.37598,560.94729 c -9.78219,0 -17.97732,6.7955 -20.12317,15.92285 -0.59323,-0.0365 -1.19152,-0.0557 -1.79396,-0.0557 -15.85234,0 -28.70321,12.85086 -28.70321,28.70321 0,10.53638 5.67907,19.74553 14.14129,24.73795 l 0,0.14229 46.06122,0 0,-27.18145 -14.37635,0 21.88002,-20.5067 21.9295,20.5067 -14.39491,0 0,27.18145 45.10858,0 c 6.01183,-4.62908 9.88528,-11.89867 9.88528,-20.07369 0,-11.99335 -8.33373,-22.03984 -19.52932,-24.65754 -0.54732,-13.50067 -11.66585,-24.2802 -25.30088,-24.2802 -7.18233,0 -13.66518,2.99085 -18.27356,7.79441 -3.77294,-5.00043 -9.76375,-8.23361 -16.51053,-8.23361 z"
       id="path2985"
       inkscape:connector-curvature="0"
       inkscape:export-filename="C:\Users\James\Desktop\text3850.png"
       inkscape:export-xdpi="90"
       inkscape:export-ydpi="90" />
    <rect
       style="fill:#ff0000;fill-opacity:1;stroke:#000000;stroke-width:0.79505503;stroke-opacity:0"
       id="rect3798"
       width="65.383514"
       height="157.34778"
       x="-99.066772"
       y="860.83112" />
    <path
       style="fill:#ff0000;fill-opacity:1;stroke:#ff0000;stroke-width:1.02961481px;stroke-linecap:butt;stroke-linejoin:miter;stroke-opacity:0"
       d="m -161.59233,860.9188 190.50609,0 -95.34811,-89.16681 z"
       id="path3812"
       inkscape:connector-curvature="0" />
    <path
       style="fill:#ffffff;fill-opacity:1;stroke:#000000;stroke-width:0.21664411;stroke-opacity:0"
       d="m 148.19171,633.52348 0,16.16707 106.31133,0 0,-16.16707 -7.05448,0 0,9.99948 -92.20914,0 0,-9.99948 -7.04771,0 z"
       id="rect3837"
       inkscape:connector-curvature="0"
       inkscape:export-filename="C:\Users\James\Desktop\text3850.png"
       inkscape:export-xdpi="90"
       inkscape:export-ydpi="90" />
    <text
       xml:space="preserve"
       style="font-size:44.51602554px;font-style:normal;font-variant:normal;font-weight:normal;font-stretch:normal;line-height:125%;letter-spacing:0px;word-spacing:0px;fill:#000000;fill-opacity:1;stroke:none;font-family:Segoe UI Light;-inkscape-font-specification:Segoe UI Light"
       x="278.03204"
       y="622.33966"
       id="text3846"
       sodipodi:linespacing="125%"
       inkscape:export-filename="C:\Users\James\Desktop\text3850.png"
       inkscape:export-xdpi="90"
       inkscape:export-ydpi="90"><tspan
         sodipodi:role="line"
         id="tspan3848"
         x="278.03204"
         y="622.33966"
         style="font-style:normal;font-variant:normal;font-weight:300;font-stretch:normal;fill:#ffffff;font-family:Segoe UI Semilight;-inkscape-font-specification:Segoe UI Semilight Light">img</tspan></text>
    <text
       xml:space="preserve"
       style="font-size:36.63980865px;font-style:normal;font-weight:normal;line-height:125%;letter-spacing:0px;word-spacing:0px;fill:#006d00;fill-opacity:1;stroke:none;font-family:Sans"
       x="351.36606"
       y="610.28748"
       id="text3850"
       sodipodi:linespacing="125%"
       inkscape:export-xdpi="90"
       inkscape:export-ydpi="90"><tspan
         sodipodi:role="line"
         id="tspan3852"
         x="351.36606"
         y="610.28748"
         style="font-style:normal;font-variant:normal;font-weight:300;font-stretch:normal;fill:#006d00;fill-opacity:1;font-family:Segoe UI Semilight;-inkscape-font-specification:Segoe UI Semilight Light">up</tspan></text>
    <rect
       style="fill:#121211;fill-opacity:1;stroke:#89c624;stroke-width:0.27797421999999999;stroke-opacity:0"
       id="rect3757-4"
       width="309.72202"
       height="149.72203"
       x="111.88899"
       y="695.25116"
       inkscape:export-filename="C:\Users\James\Desktop\SplashScreen.scale-180.png"
       inkscape:export-xdpi="324"
       inkscape:export-ydpi="324" />
    <path
       style="fill:#ffffff;fill-opacity:1;stroke:#000000;stroke-width:0.15904294;stroke-opacity:0"
       d="m 160.62686,789.18826 0,18.59739 78.04536,0 0,-18.59739 -6.86104,0 0,12.38744 -64.32825,0 0,-12.38744 z"
       id="rect3837-9"
       inkscape:connector-curvature="0"
       inkscape:export-filename="C:\Users\James\Desktop\Logo-NoBg.png"
       inkscape:export-xdpi="86.318344"
       inkscape:export-ydpi="86.318344"
       sodipodi:nodetypes="ccccccccc" />
    <text
       xml:space="preserve"
       style="font-size:44.51602554px;font-style:normal;font-variant:normal;font-weight:normal;font-stretch:normal;line-height:125%;letter-spacing:0px;word-spacing:0px;fill:#000000;fill-opacity:1;stroke:none;font-family:Segoe UI Light;-inkscape-font-specification:Segoe UI Light"
       x="264.62405"
       y="783.34991"
       id="text3846-4"
       sodipodi:linespacing="125%"
       inkscape:export-filename="C:\Users\James\Desktop\Logo-NoBg.png"
       inkscape:export-xdpi="86.318344"
       inkscape:export-ydpi="86.318344"><tspan
         sodipodi:role="line"
         id="tspan3848-8"
         x="264.62405"
         y="783.34991"
         style="font-style:normal;font-variant:normal;font-weight:300;font-stretch:normal;fill:#ffffff;font-family:Segoe UI Semilight;-inkscape-font-specification:Segoe UI Semilight Light">img<tspan
   style="fill:#89c624;fill-opacity:1"
   id="tspan3890">up</tspan></tspan></text>
    <flowRoot
       xml:space="preserve"
       id="flowRoot3892"
       style="fill:black;stroke:none;stroke-opacity:1;stroke-width:1px;stroke-linejoin:miter;stroke-linecap:butt;fill-opacity:1;font-family:Sans;font-style:normal;font-weight:normal;font-size:40px;line-height:125%;letter-spacing:0px;word-spacing:0px"><flowRegion
         id="flowRegion3894"><rect
           id="rect3896"
           width="280.36783"
           height="111.01576"
           x="193.39371"
           y="765.27686" /></flowRegion><flowPara
         id="flowPara3898"></flowPara></flowRoot>    <path
       style="fill:#ffffff;fill-opacity:1;stroke:#89c624;stroke-width:0.84995496;stroke-opacity:0"
       d="m 214.26397,731.14431 c -6.68445,0 -12.66951,2.98395 -16.69061,7.70134 -3.02077,-3.62665 -7.5539,-5.94028 -12.6428,-5.94028 -9.09496,0 -16.48033,7.38537 -16.48033,16.48033 0,0.12421 -0.003,0.24441 0,0.36798 -10.34127,0.63541 -18.53052,9.21249 -18.53052,19.71331 0,7.25792 3.92032,13.59641 9.75152,17.0323 l 20.02873,0 11.74913,0 0,-17.0323 -15.3501,0 23.34056,-21.86863 23.39313,21.86863 -15.35009,0 0,17.0323 18.66193,0 12.93193,0 0.52569,0 c 5.90631,-2.59686 10.04065,-8.48429 10.04065,-15.3501 0,-8.15264 -5.80275,-14.96228 -13.5102,-16.48033 0.0384,-0.53054 0.0525,-1.06301 0.0525,-1.60335 0,-12.10765 -9.81354,-21.9212 -21.9212,-21.9212 z"
       id="path3904"
       inkscape:export-filename="C:\Users\James\Desktop\Logo-NoBg.png"
       inkscape:export-xdpi="86.318344"
       inkscape:export-ydpi="86.318344"
       inkscape:connector-curvature="0" />
    <path
       style="fill:none;stroke:none;stroke-width:1px;stroke-linecap:butt;stroke-linejoin:miter;stroke-opacity:1"
       d="m 192.5,745.86218 -25.875,21 -8,31.875 80.5,-1 -18.25,-52.625 z"
       id="path3920"
       inkscape:connector-curvature="0"
       inkscape:export-filename="C:\Users\James\Desktop\SplashScreen.scale-180.png"
       inkscape:export-xdpi="324"
       inkscape:export-ydpi="324" />
    <g
       id="g3942"
       transform="matrix(0.29165721,0,0,0.29165721,138.40748,559.19118)" />
    <rect
       style="fill:#121211;fill-opacity:1;stroke:none"
       id="rect3950"
       width="30"
       height="30"
       x="158.5"
       y="905.86218"
       inkscape:export-filename="C:\Users\James\Desktop\SmallLogo.scale-180.png"
       inkscape:export-xdpi="162"
       inkscape:export-ydpi="162" />
    <path
       style="fill:#ffffff;fill-opacity:1;stroke:#000000;stroke-width:0.03513309;stroke-opacity:0"
       d="m 164.82466,925.08836 0,4.10823 17.24047,0 0,-4.10823 -1.51562,0 0,2.73643 -14.21032,0 0,-2.73643 z"
       id="rect3837-9-2"
       inkscape:connector-curvature="0"
       inkscape:export-filename="C:\Users\James\Desktop\SmallLogo.scale-180.png"
       inkscape:export-xdpi="162"
       inkscape:export-ydpi="162"
       sodipodi:nodetypes="ccccccccc" />
    <path
       style="fill:#ffffff;fill-opacity:1;stroke:#89c624;stroke-width:0.18775778;stroke-opacity:0"
       d="m 176.67327,912.26627 c -1.47661,0 -2.79873,0.65916 -3.68701,1.70125 -0.66729,-0.80114 -1.66868,-1.31223 -2.79283,-1.31223 -2.00911,0 -3.64056,1.63146 -3.64056,3.64056 0,0.0274 -6.6e-4,0.054 0,0.0813 -2.28442,0.14036 -4.09345,2.03507 -4.09345,4.35473 0,1.6033 0.86601,3.00349 2.15414,3.76249 l 4.42441,0 2.59542,0 0,-3.76249 -3.39088,0 5.156,-4.83085 5.16762,4.83085 -3.39089,0 0,3.76249 4.12248,0 2.85671,0 0.11613,0 c 1.30472,-0.57365 2.21801,-1.87421 2.21801,-3.39088 0,-1.80095 -1.28185,-3.30522 -2.98445,-3.64056 0.008,-0.1172 0.0116,-0.23482 0.0116,-0.35419 0,-2.67462 -2.16784,-4.84246 -4.84246,-4.84246 z"
       id="path3904-9"
       inkscape:export-filename="C:\Users\James\Desktop\SmallLogo.scale-180.png"
       inkscape:export-xdpi="162"
       inkscape:export-ydpi="162"
       inkscape:connector-curvature="0" />
    <rect
       style="fill:#121211;fill-opacity:1;stroke:none"
       id="rect3950-1"
       width="150.00111"
       height="150"
       x="464.5231"
       y="696.10596"
       inkscape:export-filename="C:\Users\James\Desktop\Logo.scale-140.png"
       inkscape:export-xdpi="126"
       inkscape:export-ydpi="126" />
    <path
       style="fill:#ffffff;fill-opacity:1;stroke:#000000;stroke-width:0.13942175;stroke-opacity:0"
       d="m 505.06954,779.70291 0,16.303 68.41714,0 0,-16.303 -6.01458,0 0,10.85913 -56.39229,0 0,-10.85913 z"
       id="rect3837-9-2-3"
       inkscape:connector-curvature="0"
       inkscape:export-filename="C:\Users\James\Desktop\Logo.scale-140.png"
       inkscape:export-xdpi="126"
       inkscape:export-ydpi="126"
       sodipodi:nodetypes="ccccccccc" />
    <path
       style="fill:#ffffff;fill-opacity:1;stroke:#89c624;stroke-width:0.74509579;stroke-opacity:0"
       d="m 552.08961,728.82007 c -5.85979,0 -11.10649,2.6158 -14.63155,6.75117 -2.64807,-3.1792 -6.62199,-5.2074 -11.08307,-5.2074 -7.97295,0 -14.44721,6.47425 -14.44721,14.44711 0,0.10884 -0.003,0.21408 0,0.32252 -9.06551,0.55701 -16.24446,8.07594 -16.24446,17.28121 0,6.36251 3.43667,11.91897 8.5485,14.93098 l 17.55784,0 10.29966,0 0,-14.93098 -13.45637,0 20.46109,-19.17063 20.50718,19.17063 -13.45641,0 0,14.93098 16.35968,0 11.33656,0 0.46086,0 c 5.17765,-2.27646 8.80195,-7.43757 8.80195,-13.45629 0,-7.14685 -5.08689,-13.11635 -11.84349,-14.44712 0.0318,-0.46508 0.046,-0.93185 0.046,-1.40555 0,-10.61388 -8.60285,-19.21667 -19.21683,-19.21667 z"
       id="path3904-9-5"
       inkscape:export-filename="C:\Users\James\Desktop\Logo.scale-140.png"
       inkscape:export-xdpi="126"
       inkscape:export-ydpi="126"
       inkscape:connector-curvature="0" />
    <rect
       style="fill:#121211;fill-opacity:1;stroke:none"
       id="rect3950-9"
       width="49.999935"
       height="50.05444"
       x="220.94656"
       y="884.9917"
       inkscape:export-filename="C:\Users\James\Desktop\StorelLogo.scale-180.png"
       inkscape:export-xdpi="162"
       inkscape:export-ydpi="162" />
    <path
       style="fill:#ffffff;fill-opacity:1;stroke:#000000;stroke-width:0.06977157;stroke-opacity:0"
       d="m 228.73564,918.46696 0,8.16306 34.21958,0 0,-8.16306 -3.00826,0 0,5.43729 -28.20522,0 0,-5.43729 z"
       id="rect3837-9-2-8"
       inkscape:connector-curvature="0"
       inkscape:export-filename="C:\Users\James\Desktop\StorelLogo.scale-180.png"
       inkscape:export-xdpi="162"
       inkscape:export-ydpi="162"
       sodipodi:nodetypes="ccccccccc" />
    <path
       style="fill:#ffffff;fill-opacity:1;stroke:#89c624;stroke-width:0.37287226;stroke-opacity:0"
       d="m 252.25324,892.9894 c -2.93084,0 -5.55504,1.30977 -7.31814,3.38041 -1.32445,-1.59189 -3.31206,-2.60741 -5.54332,-2.60741 -3.98776,0 -7.22593,3.24171 -7.22593,7.23379 0,0.0546 -0.001,0.10719 0,0.16153 -4.5342,0.2789 -8.12483,4.04371 -8.12483,8.65287 0,3.18575 1.71888,5.96794 4.27561,7.47609 l 8.78175,0 5.1515,0 0,-7.47609 -6.73035,0 10.23383,-9.59892 10.2569,9.59892 -6.73038,0 0,7.47609 8.18247,0 5.67011,0 0.2305,0 c 2.58966,-1.13985 4.4024,-3.72407 4.4024,-6.7377 0,-3.5785 -2.54426,-6.56749 -5.92366,-7.23379 0.016,-0.2329 0.0231,-0.4666 0.0231,-0.70379 0,-5.31448 -4.30281,-9.622 -9.6115,-9.622 z"
       id="path3904-9-4"
       inkscape:export-filename="C:\Users\James\Desktop\StorelLogo.scale-180.png"
       inkscape:export-xdpi="162"
       inkscape:export-ydpi="162"
       inkscape:connector-curvature="0" />
    <path
       style="fill:#ffffff;fill-opacity:1;stroke:#000000;stroke-width:0.15904294;stroke-opacity:0"
       d="m 395.09702,959.15558 0,18.59739 78.04536,0 0,-18.59739 -6.86104,0 0,12.38744 -64.32825,0 0,-12.38744 z"
       id="rect3837-9-9"
       inkscape:connector-curvature="0"
       inkscape:export-filename="C:\Users\James\Desktop\Logo-NoBg.png"
       inkscape:export-xdpi="74.683456"
       inkscape:export-ydpi="74.683456"
       sodipodi:nodetypes="ccccccccc" />
    <text
       xml:space="preserve"
       style="font-size:53.87485504px;font-style:normal;font-variant:normal;font-weight:normal;font-stretch:normal;line-height:125%;letter-spacing:0px;word-spacing:0px;fill:#000000;fill-opacity:1;stroke:none;font-family:Segoe UI Light;-inkscape-font-specification:Segoe UI Light"
       x="508.05444"
       y="955.56549"
       id="text3846-4-7"
       sodipodi:linespacing="125%"
       inkscape:export-filename="C:\Users\James\Desktop\Logo-NoBg.png"
       inkscape:export-xdpi="74.683456"
       inkscape:export-ydpi="74.683456"><tspan
         sodipodi:role="line"
         id="tspan3848-8-3"
         x="508.05444"
         y="955.56549"
         style="font-style:normal;font-variant:normal;font-weight:300;font-stretch:normal;fill:#ffffff;font-family:Segoe UI Semilight;-inkscape-font-specification:Segoe UI Semilight Light">img<tspan
   style="fill:#89c624;fill-opacity:1"
   id="tspan3890-7">up</tspan></tspan></text>
    <path
       style="fill:#ffffff;fill-opacity:1;stroke:#89c624;stroke-width:0.84995496;stroke-opacity:0"
       d="m 448.73413,901.11163 c -6.68445,0 -12.66951,2.98395 -16.69061,7.70134 -3.02077,-3.62665 -7.5539,-5.94028 -12.6428,-5.94028 -9.09496,0 -16.48033,7.38537 -16.48033,16.48033 0,0.12421 -0.003,0.24441 0,0.36798 -10.34127,0.63541 -18.53052,9.21249 -18.53052,19.71331 0,7.25792 3.92032,13.59641 9.75152,17.0323 l 20.02873,0 11.74913,0 0,-17.0323 -15.3501,0 23.34056,-21.86863 23.39313,21.86863 -15.35009,0 0,17.0323 18.66193,0 12.93193,0 0.52569,0 c 5.90631,-2.59686 10.04065,-8.48429 10.04065,-15.3501 0,-8.15264 -5.80275,-14.96228 -13.5102,-16.48033 0.0384,-0.53054 0.0525,-1.06301 0.0525,-1.60335 0,-12.10765 -9.81354,-21.9212 -21.9212,-21.9212 z"
       id="path3904-2"
       inkscape:export-filename="C:\Users\James\Desktop\Logo-NoBg.png"
       inkscape:export-xdpi="74.683456"
       inkscape:export-ydpi="74.683456"
       inkscape:connector-curvature="0" />
  </g>
</svg>
