<?xml version="1.0" encoding="UTF-8" standalone="no"?>
<!-- Generator: Adobe Illustrator 13.0.1, SVG Export Plug-In . SVG Version: 6.00 Build 14948)  -->

<svg
   xmlns:dc="http://purl.org/dc/elements/1.1/"
   xmlns:cc="http://creativecommons.org/ns#"
   xmlns:rdf="http://www.w3.org/1999/02/22-rdf-syntax-ns#"
   xmlns:svg="http://www.w3.org/2000/svg"
   xmlns="http://www.w3.org/2000/svg"
   xmlns:sodipodi="http://sodipodi.sourceforge.net/DTD/sodipodi-0.dtd"
   xmlns:inkscape="http://www.inkscape.org/namespaces/inkscape"
   version="1.1"
   x="0px"
   y="0px"
   width="360"
   height="500.00003"
   viewBox="0 0 360 500.00004"
   enable-background="new 0 0 120 40"
   xml:space="preserve"
   id="svg21775"
   inkscape:version="0.48.4 r9939"
   sodipodi:docname="reddit-alien.svg"
   inkscape:export-filename="/home/chromakode/Documents/code/reddit/reddit-about/reddit_about/public/static/about/assets/reddit-alien.png"
   inkscape:export-xdpi="184.19029"
   inkscape:export-ydpi="184.19029"><metadata
   id="metadata21839"><rdf:RDF><cc:Work
       rdf:about=""><dc:format>image/svg+xml</dc:format><dc:type
         rdf:resource="http://purl.org/dc/dcmitype/StillImage" /><dc:title></dc:title></cc:Work></rdf:RDF></metadata><defs
   id="defs21837" /><sodipodi:namedview
   pagecolor="#ffffff"
   bordercolor="#666666"
   borderopacity="1"
   objecttolerance="10"
   gridtolerance="10"
   guidetolerance="10"
   inkscape:pageopacity="0"
   inkscape:pageshadow="2"
   inkscape:window-width="2560"
   inkscape:window-height="1537"
   id="namedview21835"
   showgrid="false"
   inkscape:zoom="1"
   inkscape:cx="22.3494"
   inkscape:cy="475.80988"
   inkscape:window-x="1192"
   inkscape:window-y="-8"
   inkscape:window-maximized="1"
   inkscape:current-layer="Layer_2"
   fit-margin-top="0"
   fit-margin-left="0"
   fit-margin-right="0"
   fit-margin-bottom="0" />
<g
   id="Layer_2"
   transform="matrix(12.584949,0,0,12.584949,-584.34433,-1.3717583)">
	
	
	
	<circle
   cx="49.683998"
   cy="11.836"
   r="2.7019999"
   id="circle21800"
   sodipodi:cx="49.683998"
   sodipodi:cy="11.836"
   sodipodi:rx="2.7019999"
   sodipodi:ry="2.7019999"
   style="fill:#ffffff;stroke:none;stroke-width:1.10000002000000000"
   d="m 52.385998,11.836 c 0,1.492274 -1.209727,2.702 -2.702,2.702 -1.492273,0 -2.702,-1.209726 -2.702,-2.702 0,-1.492273 1.209727,-2.7019995 2.702,-2.7019995 1.492273,0 2.702,1.2097265 2.702,2.7019995 z"
   inkscape:export-filename="C:\Users\James\Desktop\reddit.png"
   inkscape:export-xdpi="18.719999"
   inkscape:export-ydpi="18.719999" />
	<circle
   cx="71.786003"
   cy="11.836"
   r="2.7019999"
   id="circle21802"
   sodipodi:cx="71.786003"
   sodipodi:cy="11.836"
   sodipodi:rx="2.7019999"
   sodipodi:ry="2.7019999"
   style="fill:#ffffff;stroke:none;stroke-width:1.10000002000000000;stroke-opacity:1"
   d="m 74.488003,11.836 c 0,1.492274 -1.209727,2.702 -2.702,2.702 -1.492273,0 -2.702,-1.209726 -2.702,-2.702 0,-1.492273 1.209727,-2.7019995 2.702,-2.7019995 1.492273,0 2.702,1.2097265 2.702,2.7019995 z"
   inkscape:export-filename="C:\Users\James\Desktop\reddit.png"
   inkscape:export-xdpi="18.719999"
   inkscape:export-ydpi="18.719999" />
	<path
   d="m 68.226,2.352 c 0,0 0,0 -5.404,-1.272 l -1.986,6.278"
   id="path21804"
   inkscape:connector-curvature="0"
   style="fill:none;stroke:#ffffff;stroke-width:1.10000002000000000;stroke-linecap:round;stroke-linejoin:round;stroke-opacity:1"
   inkscape:export-filename="C:\Users\James\Desktop\reddit.png"
   inkscape:export-xdpi="18.719999"
   inkscape:export-ydpi="18.719999" />
	
	<circle
   cx="70.431"
   cy="2.789"
   r="2.1300001"
   id="circle21808"
   sodipodi:cx="70.431"
   sodipodi:cy="2.789"
   sodipodi:rx="2.1300001"
   sodipodi:ry="2.1300001"
   style="fill:#ffffff;stroke:none;stroke-width:1.10000002000000000"
   d="m 72.561,2.789 c 0,1.1763666 -0.953634,2.1300001 -2.13,2.1300001 -1.176367,0 -2.13,-0.9536335 -2.13,-2.1300001 0,-1.1763665 0.953633,-2.13000008 2.13,-2.13000008 1.176366,0 2.13,0.95363358 2.13,2.13000008 z"
   inkscape:export-filename="C:\Users\James\Desktop\reddit.png"
   inkscape:export-xdpi="18.719999"
   inkscape:export-ydpi="18.719999" />
	
	<ellipse
   cx="60.675999"
   cy="15.552"
   rx="12.238"
   ry="7.987"
   id="ellipse21820"
   sodipodi:cx="60.675999"
   sodipodi:cy="15.552"
   sodipodi:rx="12.238"
   sodipodi:ry="7.987"
   style="fill:#ffffff;stroke:none;stroke-width:1.10000002000000000"
   d="m 72.913999,15.552 c 0,4.411098 -5.47914,7.987 -12.238,7.987 -6.758861,0 -12.238,-3.575902 -12.238,-7.987 0,-4.411098 5.479139,-7.9869999 12.238,-7.9869999 6.75886,0 12.238,3.5759019 12.238,7.9869999 z"
   inkscape:export-filename="C:\Users\James\Desktop\reddit.png"
   inkscape:export-xdpi="18.719999"
   inkscape:export-ydpi="18.719999" />
	
		
	<g
   id="g21824"
   inkscape:export-filename="C:\Users\James\Desktop\reddit.png"
   inkscape:export-xdpi="18.719999"
   inkscape:export-ydpi="18.719999">
		<path
   style="fill:#ff4500;stroke:none"
   d="m 135.90625,159.65625 c -13.67995,0 -25.15625,11.4763 -25.15625,25.15625 0,13.67995 11.4763,24.78125 25.15625,24.78125 13.67995,0 24.78125,-11.1013 24.78125,-24.78125 0,-13.67995 -11.1013,-25.15625 -24.78125,-25.15625 z"
   transform="matrix(0.07946,0,0,0.07946,45.637601,-0.68559946)"
   id="circle21826"
   inkscape:connector-curvature="0" />
		<path
   style="fill:#ff4500;stroke:none"
   d="m 244.46875,159.65625 c -13.68691,0 -25.1875,11.46934 -25.1875,25.15625 0,13.68691 11.50059,24.78125 25.1875,24.78125 13.68692,0 24.78125,-11.09434 24.78125,-24.78125 0,-13.68691 -11.09433,-25.15625 -24.78125,-25.15625 z"
   transform="matrix(0.07946,0,0,0.07946,45.637601,-0.68559946)"
   id="circle21828"
   inkscape:connector-curvature="0" />
		<path
   d="m 56.507,19.229 c 1.066,1.066 2.786,1.271 4.212,1.271"
   id="path21830"
   inkscape:connector-curvature="0"
   style="fill:none;stroke:#000000;stroke-width:1.10000002;stroke-linecap:round" />
		<path
   d="M 64.963,19.229 C 63.896,20.295 62.177,20.5 60.75,20.5"
   id="path21832"
   inkscape:connector-curvature="0"
   style="fill:none;stroke:#000000;stroke-width:1.10000002;stroke-linecap:round" />
	</g>
</g>
<g
   id="Layer_3"
   transform="translate(-56.49872,470.00082)">
</g>
</svg>